<svg id="falcon_1" xmlns="http://www.w3.org/2000/svg" viewBox="0 0 26.37 163.41">
  <defs>
    <style>
      .cls-1 {
        fill: #f89838;
      }

      .cls-2 {
        fill: #faab1e;
      }

      .cls-3 {
        fill: #fec00f;
      }

      .cls-4 {
        fill: #eff3f4;
      }

      .cls-5 {
        fill: #58595b;
      }

      .cls-6, .cls-9 {
        fill: #fff;
      }

      .cls-6 {
        stroke: #fff;
        stroke-width: 2.92px;
      }

      .cls-6, .cls-8 {
        stroke-linejoin: round;
      }

      .cls-7 {
        fill: none;
        stroke-miterlimit: 10;
      }

      .cls-7, .cls-8 {
        stroke: #000;
        stroke-width: 0.25px;
      }
    </style>
  </defs>
  <g id="combustion">
    <g id="fire_engine_3">
      <path class="cls-1" d="M89.9,184.12c-.9,0-1.65-1.28-1.94-3.06v.16c0,3.48.87,6.3,1.94,6.3s1.95-2.82,1.95-6.3v-.16C91.56,182.84,90.8,184.12,89.9,184.12Z" transform="translate(-70.65 -24.14)"/>
      <path class="cls-2" d="M89.9,184.12c.9,0,1.66-1.28,1.95-3.06a10.55,10.55,0,0,0,.12-1.53,9.3,9.3,0,0,0-.28-2.28,2.64,2.64,0,0,1-.08.49c0,.14,0,.27,0,.41,0,1.81-.77,3.27-1.73,3.27s-1.73-1.46-1.73-3.27c0-.14,0-.27,0-.41a2.63,2.63,0,0,1-.07-.49,8.82,8.82,0,0,0-.29,2.28,9.28,9.28,0,0,0,.13,1.53C88.25,182.84,89,184.12,89.9,184.12Z" transform="translate(-70.65 -24.14)"/>
      <path class="cls-3" d="M90.28,175a1,1,0,0,0-.38-.08,1,1,0,0,0-.37.08,1.5,1.5,0,0,1,.37-.05A1.58,1.58,0,0,1,90.28,175Z" transform="translate(-70.65 -24.14)"/>
      <path class="cls-3" d="M89.9,179.27a1.87,1.87,0,0,1-1.71-1.53c0,.14,0,.27,0,.41,0,1.81.78,3.27,1.73,3.27s1.73-1.46,1.73-3.27c0-.14,0-.27,0-.41A1.86,1.86,0,0,1,89.9,179.27Z" transform="translate(-70.65 -24.14)"/>
      <path class="cls-4" d="M89.9,179.27a1.86,1.86,0,0,0,1.71-1.53,2.64,2.64,0,0,0,.08-.49c0-.05,0-.1,0-.15A2.12,2.12,0,0,0,90.28,175a1.58,1.58,0,0,0-.38-.05,1.5,1.5,0,0,0-.37.05,2.12,2.12,0,0,0-1.42,2.13c0,.05,0,.1,0,.15a2.63,2.63,0,0,0,.07.49A1.87,1.87,0,0,0,89.9,179.27Z" transform="translate(-70.65 -24.14)"/>
    </g>
    <g id="fire_engine_2">
      <path class="cls-1" d="M83.92,184.15c.9,0,1.66-1.28,2-3.06v.16c0,3.48-.87,6.3-2,6.3S82,184.73,82,181.25v-.16C82.27,182.87,83,184.15,83.92,184.15Z" transform="translate(-70.65 -24.14)"/>
      <path class="cls-2" d="M83.92,184.15c-.9,0-1.65-1.28-1.94-3.06a9.31,9.31,0,0,1-.12-1.53,8.9,8.9,0,0,1,.28-2.28,2,2,0,0,0,.08.49c0,.14,0,.27,0,.42,0,1.8.78,3.26,1.73,3.26s1.73-1.46,1.73-3.26c0-.15,0-.28,0-.42a2.64,2.64,0,0,0,.08-.49,9.36,9.36,0,0,1,.28,2.28,10.55,10.55,0,0,1-.12,1.53C85.58,182.87,84.82,184.15,83.92,184.15Z" transform="translate(-70.65 -24.14)"/>
      <path class="cls-3" d="M83.55,175a.81.81,0,0,1,.37-.09.85.85,0,0,1,.38.09,1.2,1.2,0,0,0-.38,0A1.14,1.14,0,0,0,83.55,175Z" transform="translate(-70.65 -24.14)"/>
      <path class="cls-3" d="M83.92,179.31a1.87,1.87,0,0,0,1.71-1.54c0,.14,0,.27,0,.42,0,1.8-.77,3.26-1.73,3.26s-1.73-1.46-1.73-3.26c0-.15,0-.28,0-.42A1.86,1.86,0,0,0,83.92,179.31Z" transform="translate(-70.65 -24.14)"/>
      <path class="cls-4" d="M83.92,179.31a1.86,1.86,0,0,1-1.7-1.54,2,2,0,0,1-.08-.49c0-.05,0-.1,0-.15A2.12,2.12,0,0,1,83.55,175a1.14,1.14,0,0,1,.37,0,1.2,1.2,0,0,1,.38,0,2.12,2.12,0,0,1,1.42,2.12c0,.05,0,.1,0,.15a2.64,2.64,0,0,1-.08.49A1.87,1.87,0,0,1,83.92,179.31Z" transform="translate(-70.65 -24.14)"/>
    </g>
    <g id="fire_engine_1">
      <path class="cls-1" d="M78,184.15c-.9,0-1.66-1.28-2-3.06v.16c0,3.48.87,6.3,2,6.3s1.94-2.82,1.94-6.3v-.16C79.69,182.87,78.94,184.15,78,184.15Z" transform="translate(-70.65 -24.14)"/>
      <path class="cls-2" d="M78,184.15c.9,0,1.65-1.28,1.94-3.06a10.55,10.55,0,0,0,.12-1.53,8.9,8.9,0,0,0-.28-2.28,2.64,2.64,0,0,1-.08.49c0,.14,0,.27,0,.42,0,1.8-.78,3.26-1.73,3.26S76.3,180,76.3,178.19c0-.15,0-.28,0-.42a2.64,2.64,0,0,1-.08-.49,8.9,8.9,0,0,0-.28,2.28,10.55,10.55,0,0,0,.12,1.53C76.38,182.87,77.14,184.15,78,184.15Z" transform="translate(-70.65 -24.14)"/>
      <path class="cls-3" d="M78.41,175a.84.84,0,0,0-.37-.09.85.85,0,0,0-.38.09,1.2,1.2,0,0,1,.38,0A1.18,1.18,0,0,1,78.41,175Z" transform="translate(-70.65 -24.14)"/>
      <path class="cls-3" d="M78,179.31a1.87,1.87,0,0,1-1.71-1.54c0,.14,0,.27,0,.42,0,1.8.78,3.26,1.74,3.26s1.73-1.46,1.73-3.26c0-.15,0-.28,0-.42A1.86,1.86,0,0,1,78,179.31Z" transform="translate(-70.65 -24.14)"/>
      <path class="cls-4" d="M78,179.31a1.86,1.86,0,0,0,1.7-1.54,2.64,2.64,0,0,0,.08-.49c0-.05,0-.1,0-.15A2.12,2.12,0,0,0,78.41,175a1.18,1.18,0,0,0-.37,0,1.2,1.2,0,0,0-.38,0,2.12,2.12,0,0,0-1.42,2.12c0,.05,0,.1,0,.15a2.64,2.64,0,0,0,.08.49A1.87,1.87,0,0,0,78,179.31Z" transform="translate(-70.65 -24.14)"/>
    </g>
  </g>
  <g id="rocket">
    <g id="engines">
      <path id="engine_5" d="M91.18,171.52h-.55v-.89H89v.89h-.55s-.06.2-.14.51a27,27,0,0,0-1,5.52h4.91A30.14,30.14,0,0,0,91.18,171.52Z" transform="translate(-70.65 -24.14)"/>
      <path id="engine_4" class="cls-5" d="M88.18,171.52h-.55v-.89H86v.89h-.55s-.06.2-.14.51a27,27,0,0,1,1,5.52h1.09a27,27,0,0,1,1-5.52C88.24,171.72,88.18,171.52,88.18,171.52Z" transform="translate(-70.65 -24.14)"/>
      <path id="engine_3" d="M85.18,171.52h-.55v-.89H83v.89h-.55a28.91,28.91,0,0,0-1.1,6h4.91a27,27,0,0,0-1-5.52C85.24,171.72,85.18,171.52,85.18,171.52Z" transform="translate(-70.65 -24.14)"/>
      <path id="engine_2" class="cls-5" d="M82.45,171.52H81.9v-.89H80.28v.89h-.55s-.06.2-.14.51a27,27,0,0,1,1,5.52h.81a28.91,28.91,0,0,1,1.1-6Z" transform="translate(-70.65 -24.14)"/>
      <path id="engine_1" d="M79.45,171.52H78.9v-.89H77.28v.89h-.55a30.14,30.14,0,0,0-1.09,6h4.91a27,27,0,0,0-1-5.52C79.51,171.72,79.45,171.52,79.45,171.52Z" transform="translate(-70.65 -24.14)"/>
    </g>
    <g id="body">
      <rect class="cls-6" x="5.43" y="41.64" width="15.52" height="103.68"/>
      <line class="cls-7" x1="13.19" y1="73.93" x2="13.19" y2="146.8"/>
    </g>
    <g id="leg_right">
      <path d="M89.72,119.67c-2.67,0-2.82,4.07-2.82,4.07s-2.77,47.2-2.92,47.2h7.57a1.36,1.36,0,0,0,1.5-1.41v-46S92.39,119.67,89.72,119.67ZM91.65,124s-1.23,7.58-2,6.22S88,124,88,124Zm.2,45.66h-6s2-17.9,3.93-17.9,2.07,4,2.07,4Z" transform="translate(-70.65 -24.14)"/>
      <path class="cls-5" d="M89.78,151.79c-2,0-3.93,17.9-3.93,17.9h6V155.74S91.75,151.79,89.78,151.79Z" transform="translate(-70.65 -24.14)"/>
      <path class="cls-5" d="M91.65,124H88s.92,4.86,1.68,6.22S91.65,124,91.65,124Z" transform="translate(-70.65 -24.14)"/>
    </g>
    <g id="leg_left">
      <path d="M80.77,123.74s-.15-4.07-2.82-4.07-3.33,3.82-3.33,3.82v46a1.36,1.36,0,0,0,1.5,1.41h7.57C83.53,170.94,80.77,123.74,80.77,123.74Zm-1.12.29s-.92,4.86-1.68,6.22S76,124,76,124Zm-3.8,45.65v-14s.1-3.95,2.08-3.95,3.92,17.9,3.92,17.9Z" transform="translate(-70.65 -24.14)"/>
      <path class="cls-5" d="M77.93,151.78c-2,0-2.08,3.95-2.08,3.95v14h6S79.91,151.78,77.93,151.78Z" transform="translate(-70.65 -24.14)"/>
      <path class="cls-5" d="M78,130.25c.76-1.36,1.68-6.22,1.68-6.22H76S77.21,131.61,78,130.25Z" transform="translate(-70.65 -24.14)"/>
    </g>
    <g id="pedals">
      <rect x="3.96" y="54.3" width="18.45" height="20.45"/>
      <path class="cls-8" d="M89.27,98.44v4.84h4.1V98.44Zm2,.26.63.63-.63.63-.63-.63Zm.61,2.16-.63.63-.63-.63.63-.63Zm-1.43-1.35.63.62-.63.63-.63-.63Zm-.59,2.12.63-.63.63.63-.63.63ZM91.23,103l-.63-.63.63-.63.63.63Zm.79-.78-.63-.63L92,101l.63.63Zm0-1.49-.63-.63.63-.63.63.63Z" transform="translate(-70.65 -24.14)"/>
      <path class="cls-8" d="M74.17,98.41v4.83h4.1V98.41Zm2,.25.63.63-.63.63-.63-.63Zm.61,2.17-.63.63-.63-.63.63-.63Zm-1.43-1.36.63.63-.63.63-.63-.63Zm-.59,2.13.63-.63.63.63-.63.63ZM76.13,103l-.63-.63.63-.63.63.63Zm.79-.78-.63-.63.63-.63.63.63Zm0-1.5-.63-.63.63-.63.63.63Z" transform="translate(-70.65 -24.14)"/>
    </g>
    <g id="wings">
      <polygon points="3.96 23.55 0 31.47 0 41.54 3.96 41.54 3.98 41.54 22.39 41.54 22.39 21.76 3.96 21.76 3.96 23.55"/>
      <polygon points="22.39 23.51 22.39 41.54 26.37 41.54 26.37 31.47 22.39 23.51"/>
    </g>
    <path id="head" class="cls-9" d="M93.12,45.9,90.05,30.22h0s.19-6.08-6.09-6.08-6.34,6.08-6.34,6.08h0L74.56,45.9Z" transform="translate(-70.65 -24.14)"/>
  </g>
</svg>
